HIERARCHY
ROOT Hips
{
	OFFSET 0.000000 0.000000 0.000000
	CHANNELS 6 Xposition Yposition Zposition Zrotation Xrotation Yrotation
	JOINT Spine
	{
		OFFSET 0.000000 -0.000000 0.070167
		CHANNELS 6 Xposition Yposition Zposition Zrotation Xrotation Yrotation
		JOINT Spine1
		{
			OFFSET 0.000000 -0.000000 0.166666
			CHANNELS 6 Xposition Yposition Zposition Zrotation Xrotation Yrotation
			JOINT Neck
			{
				OFFSET 0.000000 -0.000000 0.183780
				CHANNELS 6 Xposition Yposition Zposition Zrotation Xrotation Yrotation
				JOINT Head
				{
					OFFSET 0.000000 -0.017114 0.132633
					CHANNELS 6 Xposition Yposition Zposition Zrotation Xrotation Yrotation
					End Site
					{
						OFFSET 0.000000 -0.000000 0.171140
					}
				}
			}
			JOINT LeftShoulder
			{
				OFFSET 0.034466 0.004091 0.144174
				CHANNELS 6 Xposition Yposition Zposition Zrotation Xrotation Yrotation
				JOINT LeftArm
				{
					OFFSET 0.121044 0.000000 0.000000
					CHANNELS 6 Xposition Yposition Zposition Zrotation Xrotation Yrotation
					JOINT LeftForeArm
					{
						OFFSET 0.257070 0.000000 0.000000
						CHANNELS 6 Xposition Yposition Zposition Zrotation Xrotation Yrotation
						JOINT LeftHand
						{
							OFFSET 0.224060 0.000000 0.000000
							CHANNELS 6 Xposition Yposition Zposition Zrotation Xrotation Yrotation
							End Site
							{
								OFFSET 0.128355 0.000000 0.000000
							}
						}
					}
				}
			}
			JOINT RightShoulder
			{
				OFFSET -0.033538 0.004091 0.144174
				CHANNELS 6 Xposition Yposition Zposition Zrotation Xrotation Yrotation
				JOINT RightArm
				{
					OFFSET -0.121044 0.000000 0.000000
					CHANNELS 6 Xposition Yposition Zposition Zrotation Xrotation Yrotation
					JOINT RightForeArm
					{
						OFFSET -0.257070 0.000000 0.000000
						CHANNELS 6 Xposition Yposition Zposition Zrotation Xrotation Yrotation
						JOINT RightHand
						{
							OFFSET -0.224060 0.000000 0.000000
							CHANNELS 6 Xposition Yposition Zposition Zrotation Xrotation Yrotation
							End Site
							{
								OFFSET -0.128355 0.000000 0.000000
							}
						}
					}
				}
			}
		}
	}
	JOINT LeftUpLeg
	{
		OFFSET 0.085570 0.000000 0.000000
		CHANNELS 6 Xposition Yposition Zposition Zrotation Xrotation Yrotation
		JOINT LeftLeg
		{
			OFFSET 0.000000 0.000000 -0.385526
			CHANNELS 6 Xposition Yposition Zposition Zrotation Xrotation Yrotation
			JOINT LeftFoot
			{
				OFFSET 0.000000 0.000000 -0.365921
				CHANNELS 6 Xposition Yposition Zposition Zrotation Xrotation Yrotation
				JOINT LeftToeBase
				{
					OFFSET 0.000000 -0.128355 -0.055620
					CHANNELS 6 Xposition Yposition Zposition Zrotation Xrotation Yrotation
					End Site
					{
						OFFSET 0.000000 -0.034228 0.000000
					}
				}
			}
		}
	}
	JOINT RightUpLeg
	{
		OFFSET -0.085570 0.000000 0.000000
		CHANNELS 6 Xposition Yposition Zposition Zrotation Xrotation Yrotation
		JOINT RightLeg
		{
			OFFSET 0.000000 0.000000 -0.385526
			CHANNELS 6 Xposition Yposition Zposition Zrotation Xrotation Yrotation
			JOINT RightFoot
			{
				OFFSET 0.000000 0.000000 -0.365921
				CHANNELS 6 Xposition Yposition Zposition Zrotation Xrotation Yrotation
				JOINT RightToeBase
				{
					OFFSET 0.000000 -0.128355 -0.055620
					CHANNELS 6 Xposition Yposition Zposition Zrotation Xrotation Yrotation
					End Site
					{
						OFFSET 0.000000 -0.034228 0.000000
					}
				}
			}
		}
	}
}
MOTION
Frames: 9
Frame Time: 0.016667
-0.105133 -0.156190 0.811476 -192.682437 -8.259907 -2.461177 0.000000 -0.000000 0.070167 -6.553029 -0.330946 7.052588 -0.000000 -0.000000 0.166666 -2.440755 13.076399 2.217370 0.000000 -0.000000 0.183780 6.566085 9.365327 0.077152 -0.000000 -0.017114 0.132633 6.968580 12.259711 7.297543 0.034466 0.004091 0.144174 -6.977105 4.336804 -3.043719 0.121044 -0.000000 -0.000000 -39.689536 -5.463622 55.091517 0.257070 -0.000000 0.000000 -66.817179 12.548838 -16.504182 0.224060 -0.000000 -0.000000 -17.047461 2.063233 -2.730626 -0.033538 0.004091 0.144174 -17.033180 8.079466 7.152995 -0.121044 -0.000000 0.000000 50.796257 6.764418 -74.458358 -0.257070 -0.000000 -0.000000 28.895416 4.582100 7.197180 -0.224060 -0.000000 0.000000 14.510044 3.436282 5.561579 0.085570 0.000000 -0.000000 8.249614 18.671145 2.921788 0.000000 0.000000 -0.385526 -6.154212 6.099580 2.058105 0.000000 0.000000 -0.365921 15.331452 -12.824866 14.956494 -0.000000 -0.128355 -0.055620 -0.000000 0.000002 -0.000000 -0.085570 0.000000 -0.000000 0.268732 -15.321777 2.612749 0.000000 0.000000 -0.385526 18.035386 25.059580 -8.204921 -0.000000 0.000000 -0.365921 -9.177758 0.205845 2.972447 -0.000000 -0.128355 -0.055620 0.000000 0.000001 0.000000 
-0.104313 -0.150155 0.810682 -192.588167 -8.160980 -2.518757 0.000000 -0.000000 0.070167 -6.756854 -0.414349 7.027527 -0.000000 -0.000000 0.166666 -2.504431 13.129625 2.157724 0.000000 -0.000000 0.183780 6.762265 8.837651 -0.141427 -0.000000 -0.017114 0.132633 7.168272 12.686976 7.188369 0.034466 0.004091 0.144174 -7.113566 4.140888 -3.295008 0.121044 0.000000 0.000000 -39.990064 -5.441721 54.851501 0.257070 -0.000000 -0.000000 -66.429389 12.803462 -16.672068 0.224060 0.000000 0.000000 -16.902531 2.302846 -2.827172 -0.033538 0.004091 0.144174 -17.200167 8.238325 7.032635 -0.121044 0.000000 0.000000 50.017380 6.551176 -74.311796 -0.257070 0.000000 0.000000 28.233946 4.919086 6.746096 -0.224060 -0.000000 -0.000000 14.808870 3.927226 5.414539 0.085570 0.000000 0.000000 8.174911 19.030449 2.921030 0.000000 0.000000 -0.385526 -6.337923 6.070719 2.142673 -0.000000 0.000000 -0.365921 15.300860 -12.845035 14.923654 0.000000 -0.128355 -0.055620 0.000001 0.000002 -0.000002 -0.085570 0.000000 0.000000 0.392502 -15.539066 2.535970 -0.000000 0.000000 -0.385526 17.143485 23.274483 -7.400629 -0.000000 0.000000 -0.365921 -8.751150 1.672252 3.915350 -0.000000 -0.128355 -0.055620 0.000001 -0.000001 -0.000000 
-0.103633 -0.143769 0.809691 -192.557649 -8.115098 -2.653665 0.000000 -0.000000 0.070167 -6.891959 -0.523341 6.969774 -0.000000 -0.000000 0.166666 -2.557626 13.180502 2.198711 0.000000 -0.000000 0.183780 6.788978 8.099308 -0.236204 -0.000000 -0.017114 0.132633 7.158269 13.801984 6.891216 0.034466 0.004091 0.144174 -7.346145 4.053383 -3.521697 0.121044 0.000000 0.000000 -40.096065 -5.424987 54.508946 0.257070 0.000000 0.000000 -66.072709 12.974738 -16.577395 0.224060 0.000000 -0.000000 -16.683343 2.646642 -3.067448 -0.033538 0.004091 0.144174 -17.152599 8.333330 6.990210 -0.121044 0.000000 -0.000000 49.232055 6.463677 -74.428687 -0.257070 0.000000 0.000000 27.668007 5.193295 6.449121 -0.224060 -0.000000 0.000000 15.058115 4.292607 5.189569 0.085570 -0.000000 -0.000000 8.128806 19.499555 3.011271 -0.000000 0.000000 -0.385526 -6.576321 6.020468 2.196623 -0.000000 0.000000 -0.365921 15.205989 -12.819475 14.535993 -0.000000 -0.128355 -0.055620 0.000001 0.000000 -0.000001 -0.085570 -0.000000 -0.000000 0.291766 -15.697072 2.481733 0.000000 0.000000 -0.385526 16.604221 21.596054 -6.633362 -0.000000 0.000000 -0.365921 -8.545185 2.955049 4.192552 -0.000000 -0.128355 -0.055620 0.000000 -0.000001 0.000000 
-0.102791 -0.137577 0.808596 -192.452082 -8.003427 -2.755668 0.000000 -0.000000 0.070167 -7.070809 -0.577622 6.939877 -0.000000 -0.000000 0.166666 -2.610568 13.127645 2.141483 -0.000000 -0.000000 0.183780 6.940399 8.572904 -0.233125 -0.000000 -0.017114 0.132633 7.352099 12.746580 6.693019 0.034466 0.004091 0.144174 -7.787314 3.703242 -3.701625 0.121044 -0.000000 0.000000 -39.918822 -4.990170 54.442014 0.257070 0.000000 -0.000000 -65.896121 13.273007 -16.587367 0.224060 0.000000 -0.000000 -16.503269 2.996245 -3.194618 -0.033538 0.004091 0.144174 -17.224146 8.232528 6.935956 -0.121044 0.000000 0.000000 48.552670 6.467300 -74.581984 -0.257070 0.000000 0.000000 27.054951 5.503097 6.067757 -0.224060 -0.000000 -0.000000 15.287818 4.719656 5.025943 0.085570 0.000000 -0.000000 8.084464 19.861189 3.053080 -0.000000 0.000000 -0.385526 -6.850101 5.991929 2.279949 0.000000 0.000000 -0.365921 15.384649 -12.921146 14.570855 -0.000000 -0.128355 -0.055620 -0.000000 -0.000001 -0.000001 -0.085570 0.000000 -0.000000 0.889392 -15.815119 2.697014 -0.000000 0.000000 -0.385526 15.779057 19.774405 -6.134582 -0.000000 0.000000 -0.365921 -8.522346 4.117703 4.397209 -0.000000 -0.128355 -0.055620 0.000001 0.000002 -0.000000 
-0.101938 -0.131145 0.807550 -192.356787 -7.900792 -2.896415 0.000000 -0.000000 0.070167 -7.301491 -0.626628 6.883488 -0.000000 -0.000000 0.166666 -2.689128 13.052152 2.159833 0.000000 -0.000000 0.183780 7.096635 8.245709 -0.327968 0.000000 -0.017114 0.132633 7.511626 13.045341 6.586793 0.034466 0.004091 0.144174 -7.788393 3.939193 -3.921834 0.121044 -0.000000 -0.000000 -40.144539 -4.971398 53.975372 0.257070 0.000000 0.000000 -65.438594 13.738430 -16.698122 0.224060 0.000000 -0.000000 -16.584486 3.446482 -2.837490 -0.033538 0.004091 0.144174 -17.182357 8.346049 6.897190 -0.121044 0.000000 0.000000 47.789498 6.353402 -74.616210 -0.257070 -0.000000 -0.000000 26.530809 5.770298 5.716891 -0.224060 -0.000000 -0.000000 15.453554 5.085411 4.870506 0.085570 -0.000000 -0.000000 8.053726 20.235245 3.136466 0.000000 0.000000 -0.385526 -7.112935 5.995595 2.327439 0.000000 0.000000 -0.365921 15.353943 -12.903127 14.452931 -0.000000 -0.128355 -0.055620 -0.000001 0.000000 -0.000001 -0.085570 -0.000000 -0.000000 1.258450 -15.855198 2.900318 0.000000 0.000000 -0.385526 15.013271 17.973627 -5.605085 0.000000 0.000000 -0.365921 -8.392078 5.297180 4.488523 -0.000000 -0.128355 -0.055620 0.000000 0.000001 0.000000 
-0.100869 -0.124687 0.806497 -192.257258 -7.789684 -3.012856 -0.000000 -0.000000 0.070167 -7.467404 -0.709952 6.869399 -0.000000 -0.000000 0.166666 -2.739254 13.014979 2.104554 0.000000 -0.000000 0.183780 7.024944 8.217448 -0.525878 0.000000 -0.017114 0.132633 7.453296 13.002671 6.746628 0.034466 0.004091 0.144174 -8.072874 3.886501 -4.186468 0.121044 0.000000 -0.000000 -39.995993 -4.696121 53.797322 0.257070 0.000000 -0.000000 -65.120622 14.210203 -16.656489 0.224060 0.000000 -0.000000 -16.575016 3.971486 -2.469653 -0.033538 0.004091 0.144174 -16.948387 8.174586 6.782669 -0.121044 -0.000000 0.000000 46.949805 6.604621 -74.892471 -0.257070 0.000000 0.000000 26.193280 5.921856 5.472195 -0.224060 0.000000 0.000000 15.519935 5.317711 4.893990 0.085570 0.000000 -0.000000 8.028210 20.587932 3.175100 -0.000000 0.000000 -0.385526 -7.486289 6.018282 2.401844 0.000000 0.000000 -0.365921 15.414204 -12.901689 14.189044 -0.000000 -0.128355 -0.055620 -0.000000 0.000002 0.000000 -0.085570 0.000000 -0.000000 1.203658 -15.936331 2.888856 -0.000000 0.000000 -0.385526 14.569661 16.393047 -4.894746 -0.000000 0.000000 -0.365921 -7.723521 6.220382 4.616392 -0.000000 -0.128355 -0.055620 -0.000000 0.000000 0.000001 
-0.099599 -0.118042 0.805446 -192.114834 -7.699447 -3.107629 0.000000 -0.000000 0.070167 -7.644972 -0.821903 6.825998 -0.000000 -0.000000 0.166666 -2.793406 13.077134 2.031991 0.000000 -0.000000 0.183780 7.273175 7.560507 -0.614389 0.000000 -0.017114 0.132633 7.695228 13.801756 6.519583 0.034466 0.004091 0.144174 -8.422171 3.781320 -4.312076 0.121044 -0.000000 -0.000000 -39.773950 -4.188354 53.574891 0.257070 0.000000 -0.000000 -64.927908 14.527778 -16.700263 0.224060 0.000000 -0.000000 -16.431606 4.246162 -2.049807 -0.033538 0.004091 0.144174 -17.206280 8.437587 6.843678 -0.121044 -0.000000 0.000000 46.451727 6.219714 -74.746749 -0.257070 -0.000000 0.000000 25.644319 6.072707 5.176986 -0.224060 -0.000000 0.000000 15.781639 5.544018 4.672684 0.085570 -0.000000 -0.000000 8.033659 21.001001 3.127601 0.000000 0.000000 -0.385526 -7.051758 5.994308 2.429045 0.000000 0.000000 -0.365921 14.651495 -12.836202 14.122582 0.000000 -0.128355 -0.055620 0.000001 0.000003 -0.000001 -0.085570 0.000000 -0.000000 1.395788 -15.921186 3.018954 0.000000 0.000000 -0.385526 13.992538 14.856503 -4.492028 0.000000 0.000000 -0.365921 -7.647348 7.227927 4.369566 -0.000000 -0.128355 -0.055620 -0.000000 -0.000001 0.000000 
-0.098520 -0.111462 0.804200 -191.966578 -7.573223 -3.278858 0.000000 -0.000000 0.070167 -7.769297 -0.902238 6.830801 -0.000000 -0.000000 0.166666 -2.829224 13.058378 1.970571 -0.000000 -0.000000 0.183780 7.224241 7.514750 -0.680506 0.000000 -0.017114 0.132633 7.657626 13.620423 6.581553 0.034466 0.004091 0.144174 -8.779333 3.745447 -4.499762 0.121044 0.000000 -0.000000 -39.429815 -3.884827 53.329902 0.257070 0.000000 -0.000000 -64.611103 15.004782 -16.531722 0.224060 0.000000 -0.000000 -16.478410 4.789300 -1.187909 -0.033538 0.004091 0.144174 -17.257573 8.524262 6.832432 -0.121044 0.000000 -0.000000 45.607813 6.036884 -74.771515 -0.257070 0.000000 -0.000000 25.264364 6.168524 4.904984 -0.224060 0.000000 -0.000000 15.908960 5.713663 4.598655 0.085570 0.000000 0.000000 7.895582 21.362036 3.249930 -0.000000 0.000000 -0.385526 -7.529021 5.977453 2.470912 -0.000000 0.000000 -0.365921 14.804193 -12.892312 13.970686 -0.000000 -0.128355 -0.055620 0.000000 0.000001 0.000000 -0.085570 0.000000 0.000000 1.718202 -15.932581 3.291430 0.000000 0.000000 -0.385526 13.158331 13.554176 -4.079906 0.000000 0.000000 -0.365921 -6.836757 7.493955 5.088082 -0.000000 -0.128355 -0.055620 -0.000000 0.000001 0.000000 
-0.097242 -0.104765 0.803023 -191.803446 -7.483936 -3.425225 0.000000 -0.000000 0.070167 -7.914753 -0.912932 6.856667 -0.000000 -0.000000 0.166666 -2.861354 13.035326 1.827763 0.000000 -0.000000 0.183780 7.281917 7.024664 -0.739391 0.000000 -0.017114 0.132633 7.713491 14.089677 6.552513 0.034466 0.004091 0.144174 -8.995100 3.622709 -4.621418 0.121044 0.000000 -0.000000 -38.923517 -3.688676 53.091573 0.257070 0.000000 -0.000000 -64.451550 15.243585 -15.934630 0.224060 -0.000000 -0.000000 -16.374477 5.368257 -0.598266 -0.033538 0.004091 0.144174 -17.244447 8.534182 6.859001 -0.121044 0.000000 0.000000 45.186862 6.141198 -74.921711 -0.257070 0.000000 -0.000000 25.063647 6.224014 4.884035 -0.224060 0.000000 -0.000000 16.102128 5.783389 4.546944 0.085570 0.000000 -0.000000 7.948319 21.715582 3.249306 -0.000000 0.000000 -0.385526 -7.928486 6.094832 2.535338 -0.000000 0.000000 -0.365921 14.841911 -12.888400 14.032414 -0.000000 -0.128355 -0.055620 -0.000000 0.000002 -0.000000 -0.085570 0.000000 -0.000000 2.093146 -15.851985 3.596679 -0.000000 0.000000 -0.385526 13.034623 12.377262 -3.924615 0.000000 0.000000 -0.365921 -6.519381 7.289305 6.167227 -0.000000 -0.128355 -0.055620 -0.000000 -0.000001 -0.000001 
